# xmcd CD database file
#
# Track frame offsets:
#	150
#	3680
#	18300
#	33622
#	49945
#	63475
#	76425
#	91095
#	105072
#	120610
#	133892
#	148975
#	165192
#
# Disc length: 2382 seconds
#
# Revision: 0
# Processed by: cddbd v1.5.1PL2 Copyright (c) Steve Scherf et al.
# Submitted via: CDex 1.51
#
DISCID=a6094c0d
DTITLE=Kenn Nagai・Eiji Isomura・須山克己 - デジガールPOP! SOUNDS〜フロム・ディスコ・トゥ・ロンリネス〜
DYEAR=1900
DGENRE=アニメ
TTITLE0=かずき　さや/ウヒョウヒョPOP! Ver.TV
TTITLE1=Ya-ho!
TTITLE2=LT 4036
TTITLE3=ファンク・ド・アニキ
TTITLE4=HACHI-BIT
TTITLE5=Oh My…
TTITLE6=HAPPY SET(B.L.T.サンドmix)
TTITLE7=通はクンフー、モグリはカンフー
TTITLE8=are you lady?
TTITLE9=漂売的小姐
TTITLE10=may be blue
TTITLE11=かずき　さや/ウヒョウヒョPOP!
TTITLE12=TA・ME・I・KI in the beach
EXTD=
EXTT0=
EXTT1=
EXTT2=
EXTT3=
EXTT4=
EXTT5=
EXTT6=
EXTT7=
EXTT8=
EXTT9=
EXTT10=
EXTT11=
EXTT12=
PLAYORDER=
